<svg width="238" height="116" viewBox="0 0 238 116" fill="none" xmlns="http://www.w3.org/2000/svg">
<path d="M235.271 87.6957H217.189V19.6608H235.271C236.733 19.6608 237.907 18.4759 237.907 17.0231C237.907 15.5703 236.733 14.3854 235.271 14.3854H193.835C192.373 14.3854 191.199 15.5703 191.199 17.0231V22.69C184.495 23.6276 176.515 23.9367 174.476 22.8239C172.293 21.6287 169.647 17.5691 167.32 14.0039C164.179 9.19218 161.224 4.63788 157.496 2.91729C149.094 -0.977573 130.013 -0.967286 121.662 2.91729C119.046 4.13313 115.216 7.45102 111.735 10.779H92.1193C82.4194 10.779 76.8075 15.3745 72.2975 19.0631C70.3616 20.6498 68.6935 22.0099 67.0562 22.7105C64.0392 24.0088 54.3599 23.5142 47.6153 22.7827V17.0229C47.6153 15.5701 46.4311 14.3852 44.9792 14.3852H3.54304C2.09115 14.3852 0.906982 15.5701 0.906982 17.0229C0.906982 18.4757 2.09115 19.6606 3.54304 19.6606H21.6248V87.7061H3.54304C2.09115 87.7061 0.906982 88.8807 0.906982 90.3438C0.906982 91.8069 2.09115 92.9815 3.54304 92.9815H44.9792C46.4311 92.9815 47.6153 91.8069 47.6153 90.3438V85.6866C47.6359 85.6866 47.6565 85.6969 47.6771 85.6969H62.299C62.3608 85.6969 62.4123 85.666 62.4638 85.666C63.5861 86.346 64.8218 86.8303 66.1192 87.057C64.2863 91.0136 64.9659 95.8562 68.2198 99.1122C70.238 101.132 72.9257 102.244 75.7779 102.244C77.8682 102.244 79.8659 101.637 81.5854 100.513C82.0179 102.409 82.9446 104.223 84.4171 105.707C86.4353 107.726 89.1229 108.839 91.9854 108.839C93.4785 108.839 94.9099 108.52 96.2382 107.943C96.6192 109.818 97.5253 111.611 98.9773 113.053C100.872 114.949 103.405 116 106.093 116C108.78 116 111.303 114.949 113.208 113.053L116.328 109.931L118.943 112.383C121.044 114.351 123.721 115.33 126.388 115.33C129.292 115.33 132.196 114.176 134.337 111.889C135.779 110.343 136.664 108.489 137.035 106.541C138.93 108.004 141.216 108.829 143.625 108.829H143.996C146.9 108.726 149.598 107.51 151.585 105.387C152.985 103.893 153.891 102.07 154.293 100.112C156.229 101.678 158.597 102.574 161.099 102.574H161.449C164.363 102.482 167.061 101.256 169.059 99.133C171.056 97.0104 172.096 94.2284 172.004 91.3229C171.942 89.2828 171.283 87.3561 170.192 85.6972H191.115C191.136 85.6972 191.156 85.6869 191.177 85.6869V90.3441C191.177 91.8072 192.351 92.9818 193.813 92.9818H235.249C236.711 92.9818 237.885 91.8072 237.885 90.3441C237.906 88.8809 236.733 87.6957 235.271 87.6957ZM42.3432 87.6957H26.8975V19.6608H42.3432V87.6957ZM80.0625 72.1476L71.8351 80.3802C69.786 82.4204 66.2129 82.4204 64.1742 80.3699C62.0633 78.2474 62.0633 74.8059 64.1742 72.6936L72.3913 64.4713C73.421 63.441 74.7802 62.8846 76.2218 62.8846C77.6737 62.8846 79.0329 63.4512 80.0522 64.4713C82.1734 66.5835 82.1734 70.0353 80.0625 72.1476ZM71.969 95.3823C69.8581 93.2597 69.8478 89.8183 71.969 87.706L80.1964 79.4734C81.2158 78.4533 82.575 77.8969 84.0269 77.8969C85.4787 77.8969 86.838 78.4636 87.8676 79.4837C88.8973 80.514 89.4533 81.8741 89.4533 83.3166C89.4533 84.759 88.887 86.1191 87.8676 87.1494L79.6402 95.382C77.5808 97.4222 74.0183 97.4224 71.969 95.3823ZM88.1663 101.977C86.0554 99.8644 86.0554 96.4332 88.156 94.3109L96.3834 86.0783C97.4131 85.0582 98.7723 84.4915 100.214 84.4915C101.666 84.4915 103.025 85.0582 104.044 86.0783C105.064 87.1086 105.63 88.4687 105.63 89.9111C105.63 91.3639 105.064 92.724 104.044 93.744L95.8272 101.966C93.7883 104.027 90.2153 104.027 88.1663 101.977ZM109.491 109.333C107.679 111.147 104.528 111.137 102.726 109.333C100.862 107.469 100.862 104.439 102.716 102.574L110.295 94.9909C111.201 94.0841 112.395 93.5896 113.682 93.5896C114.959 93.5896 116.164 94.0841 117.07 94.9909C118.934 96.8558 118.934 99.8955 117.07 101.771L109.491 109.333ZM130.508 108.283C128.387 110.549 124.814 110.652 122.559 108.54L120.067 106.201L120.788 105.48C124.443 101.822 124.639 96.0522 121.488 92.1059L130.292 100.359C132.516 102.492 132.619 106.036 130.508 108.283ZM191.137 80.4229H175.3C178.451 76.0543 177.988 69.9131 173.951 66.1214L141.712 35.8587C140.642 34.8593 138.984 34.9108 137.985 35.9824C136.986 37.0437 137.037 38.713 138.108 39.7124L170.347 69.9645C172.613 72.087 172.736 75.6625 170.615 77.9188C168.514 80.1444 165.096 80.3196 162.872 78.3722L139.693 56.6418C138.632 55.6423 136.954 55.6939 135.965 56.7654C134.966 57.8267 135.018 59.496 136.089 60.4955L164.972 87.5849C166.063 88.6152 166.702 90.0062 166.743 91.5106C166.795 93.0149 166.249 94.4369 165.219 95.5392C164.189 96.6415 162.799 97.2702 161.296 97.3115C159.865 97.3012 158.371 96.8169 157.28 95.7865L136.377 76.1685L128.551 68.8324L127.274 67.6269C126.214 66.6274 124.545 66.6789 123.547 67.7505C122.548 68.8118 122.599 70.4811 123.67 71.4805L136.346 83.3709L147.529 93.8703C148.62 94.8904 149.248 96.2814 149.3 97.7755C149.351 99.2798 148.805 100.702 147.776 101.814C146.746 102.907 145.366 103.545 143.863 103.587C142.442 103.587 140.938 103.102 139.847 102.072L112.93 76.8693C112.446 76.3438 111.756 76.0244 110.994 76.0244C109.542 76.0244 108.358 77.2093 108.358 78.6724C108.358 79.404 108.657 80.0943 109.192 80.5992L119.242 90.0167C116.771 88.4196 113.63 88.059 110.819 88.8524C110.572 86.4001 109.553 84.1229 107.792 82.3612C105.774 80.3417 103.086 79.2289 100.234 79.2289C98.1437 79.2289 96.146 79.8368 94.4368 80.9496C93.994 79.0022 93.0364 77.2093 91.5948 75.767C90.0194 74.2008 88.0422 73.1911 85.9004 72.8201C87.7333 68.8635 87.0537 64.0209 83.7998 60.7546C81.7816 58.7351 79.0939 57.6223 76.2314 57.6223C73.3689 57.6223 70.6915 58.7351 68.6733 60.7546L60.4562 68.9769C57.367 72.0681 56.5844 76.5913 58.0673 80.4347H47.6981C47.6775 80.4347 47.6569 80.445 47.6363 80.445L47.6157 28.0914C50.5607 28.4005 55.1533 28.7818 59.5191 28.7818C63.3598 28.7818 66.9947 28.483 69.1468 27.5556C71.4636 26.5562 73.492 24.8973 75.6441 23.1456C79.7116 19.8279 84.3144 16.0567 92.1298 16.0567H106.494C104.991 17.6332 103.92 18.8182 103.621 19.1479C100.841 21.6723 99.1011 25.0313 98.7302 28.6168C98.3492 32.3054 99.451 35.7882 101.83 38.4154C104.26 41.0943 107.668 42.4337 111.19 42.4337C114.67 42.4337 118.274 41.1252 121.168 38.4977C121.25 38.4256 121.312 38.3535 121.384 38.271C124.782 34.3762 130.6 28.4827 132.917 27.5964C134.379 27.0297 140.053 27.2358 144.48 27.751C145.912 27.9158 147.24 26.8855 147.405 25.443C147.57 24.0004 146.54 22.6815 145.098 22.5167C142.648 22.2282 134.358 21.3833 131.022 22.6815C126.769 24.3198 119.263 32.6967 117.533 34.6853C113.867 37.9207 108.605 38.0133 105.743 34.8708C104.384 33.3664 103.755 31.347 103.982 29.1625C104.219 26.875 105.351 24.7113 107.349 22.8773C110.603 19.2813 119.932 9.55465 123.907 7.70006C130.775 4.49575 148.372 4.49575 155.291 7.70006C157.639 8.78195 160.44 13.0889 162.911 16.8807C165.836 21.373 168.595 25.6181 171.952 27.4522C176.04 29.6983 186.492 28.6371 191.208 28.0188V80.4331C191.177 80.4331 191.158 80.4229 191.137 80.4229ZM196.471 19.6628H211.917V87.7083H196.471V19.6628Z" fill="white"/>
</svg>
